<svg xmlns="http://www.w3.org/2000/svg" xmlns:xlink="http://www.w3.org/1999/xlink" width="358px" height="343px" version="1.1"><defs/><g transform="translate(0.5,0.5)"><path d="M 8 281 L 341.63 281.98" fill="none" stroke="#000000" stroke-miterlimit="10" pointer-events="none"/><path d="M 346.88 282 L 339.87 285.48 L 341.63 281.98 L 339.89 278.48 Z" fill="#000000" stroke="#000000" stroke-miterlimit="10" pointer-events="none"/><path d="M 48 311 L 48 37.37" fill="none" stroke="#000000" stroke-miterlimit="10" pointer-events="none"/><path d="M 48 32.12 L 51.5 39.12 L 48 37.37 L 44.5 39.12 Z" fill="#000000" stroke="#000000" stroke-miterlimit="10" pointer-events="none"/><ellipse cx="73" cy="266" rx="5" ry="5" fill="#000000" stroke="#000000" pointer-events="none"/><ellipse cx="63" cy="226" rx="5" ry="5" fill="#000000" stroke="#000000" pointer-events="none"/><ellipse cx="88" cy="236" rx="5" ry="5" fill="#000000" stroke="#000000" pointer-events="none"/><ellipse cx="88" cy="176" rx="5" ry="5" fill="#000000" stroke="#000000" pointer-events="none"/><ellipse cx="173" cy="261" rx="5" ry="5" fill="#000000" stroke="#000000" pointer-events="none"/><ellipse cx="123" cy="261" rx="5" ry="5" fill="#000000" stroke="#000000" pointer-events="none"/><ellipse cx="63" cy="116" rx="5" ry="5" fill="#000000" stroke="#000000" pointer-events="none"/><path d="M 228 301 L 28 51" fill="none" stroke="#000000" stroke-miterlimit="10" stroke-dasharray="3 3" pointer-events="none"/><path d="M 38 31 L 258 311" fill="none" stroke="#000000" stroke-miterlimit="10" pointer-events="none"/><path d="M 278 301 L 38 1" fill="none" stroke="#000000" stroke-miterlimit="10" stroke-dasharray="3 3" pointer-events="none"/><ellipse cx="108" cy="66" rx="5" ry="5" fill="#ffffff" stroke="#000000" pointer-events="none"/><ellipse cx="163" cy="96" rx="5" ry="5" fill="#ffffff" stroke="#000000" pointer-events="none"/><ellipse cx="138" cy="56" rx="5" ry="5" fill="#ffffff" stroke="#000000" pointer-events="none"/><ellipse cx="218" cy="186" rx="5" ry="5" fill="#ffffff" stroke="#000000" pointer-events="none"/><ellipse cx="223" cy="101" rx="5" ry="5" fill="#ffffff" stroke="#000000" pointer-events="none"/><ellipse cx="158" cy="116" rx="5" ry="5" fill="#ffffff" stroke="#000000" pointer-events="none"/><ellipse cx="283" cy="241" rx="5" ry="5" fill="#ffffff" stroke="#000000" pointer-events="none"/><ellipse cx="278" cy="166" rx="5" ry="5" fill="#ffffff" stroke="#000000" pointer-events="none"/><ellipse cx="188" cy="146" rx="5" ry="5" fill="#ffffff" stroke="#000000" pointer-events="none"/><ellipse cx="233" cy="136" rx="5" ry="5" fill="#ffffff" stroke="#000000" pointer-events="none"/><ellipse cx="188" cy="76" rx="5" ry="5" fill="#ffffff" stroke="#000000" pointer-events="none"/><rect x="218" y="301" width="80" height="40" fill="none" stroke="none" pointer-events="none"/><g fill="#000000" font-family="Helvetica" text-anchor="middle" font-size="12px"><text x="258" y="325">h</text></g></g></svg>